<svg id="Warstwa_1" data-name="Warstwa 1" xmlns="http://www.w3.org/2000/svg" viewBox="0 0 1043.68 1043.68"><defs><style>.cls-1{fill:#231f20;}.cls-2{fill:none;stroke:#fff;stroke-miterlimit:10;stroke-width:45px;}</style></defs><title>ikonka.ank.8</title><circle class="cls-1" cx="521.84" cy="521.84" r="521.84"/><path class="cls-2" d="M880.27,550.69v-235a13,13,0,0,0-12.93-12.93H399.24a13,13,0,0,0-12.92,12.93v468.1a13,13,0,0,0,12.92,12.92h154.1" transform="translate(-198.85 -128.05)"/><line class="cls-2" x1="368.22" y1="279" x2="644.62" y2="279"/><line class="cls-2" x1="368.22" y1="367.18" x2="644.62" y2="367.18"/><rect class="cls-2" x="246.4" y="283.45" width="77.06" height="77.06" rx="12"/><rect class="cls-2" x="353.98" y="423.64" width="470.56" height="470.56" rx="12"/><rect class="cls-2" x="407.18" y="669.99" width="76.37" height="76.37" rx="12"/><line class="cls-2" x1="532.98" y1="699.11" x2="773.58" y2="699.11"/><line class="cls-2" x1="532.98" y1="621.63" x2="773.58" y2="621.63"/><line class="cls-2" x1="532.98" y1="544.15" x2="773.58" y2="544.15"/><line class="cls-2" x1="535.58" y1="776.6" x2="776.18" y2="776.6"/></svg>